<svg width="61" height="30" viewBox="0 0 61 30" fill="none" xmlns="http://www.w3.org/2000/svg">
<g clip-path="url(#clip0_1_72)">
<path fill-rule="evenodd" clip-rule="evenodd" d="M12.716 3.13992C7.91547 1.13005 2.59433 4.60156 2.59433 9.74413C2.59433 13.7343 5.8717 16.9663 9.91774 16.9663H28.9871L28.4368 16.1336C24.6193 10.3596 19.1469 5.83693 12.7166 3.14017M32.0838 16.9663L30.6102 14.7365C26.5114 8.53698 20.6355 3.68085 13.7313 0.785472L13.7307 0.78522C7.22012 -1.94121 0 2.76703 0 9.74413C0 15.1473 4.43889 19.5248 9.91774 19.5248H30.6779L34.8447 25.83C38.9605 32.0544 48.4712 31.1415 51.2953 24.2552L53.233 19.5248H56.6428C56.6754 19.5273 56.7084 19.5285 56.7416 19.5285C61.2569 19.5285 62.6641 13.5089 58.6072 11.5584L58.6054 11.5576C56.39 10.4967 53.7192 11.5036 52.796 13.7613L51.4831 16.9663H32.0838ZM33.7745 19.5248L37.018 24.4328C37.0179 24.4327 37.018 24.4329 37.018 24.4328C39.9883 28.9243 46.8514 28.2663 48.89 23.2964C48.8899 23.2965 48.8901 23.2962 48.89 23.2964L50.435 19.5248H33.7745ZM54.2811 16.9663H56.7416C56.7672 16.9663 56.7926 16.9671 56.8178 16.9685C58.52 16.9019 59.0311 14.6091 57.4709 13.8584C56.6029 13.4437 55.561 13.8404 55.2021 14.7182L55.2018 14.7189L54.2811 16.9663Z" fill="url(#paint0_linear_1_72)"/>
</g>
<defs>
<linearGradient id="paint0_linear_1_72" x1="-19.9048" y1="6.43943" x2="34.4699" y2="60.4095" gradientUnits="userSpaceOnUse">
<stop stop-color="#1104F3"/>
<stop offset="1" stop-color="#0EDEF9"/>
</linearGradient>
<clipPath id="clip0_1_72">
<rect width="61" height="30" fill="white"/>
</clipPath>
</defs>
</svg>
