<svg width="64" height="52" viewBox="0 0 64 52" fill="none" xmlns="http://www.w3.org/2000/svg">
<path d="M23 33.5V20C23 19.8011 23.079 19.6103 23.2197 19.4697C23.3603 19.329 23.5511 19.25 23.75 19.25H28.7469C28.909 19.2507 29.0667 19.3032 29.1969 19.4L31.8031 21.35C31.9333 21.4468 32.091 21.4993 32.2531 21.5H38.75C38.9489 21.5 39.1397 21.579 39.2803 21.7197C39.421 21.8603 39.5 22.0511 39.5 22.25V24.5" stroke="#B0B0B0" stroke-width="1.5" stroke-linecap="round" stroke-linejoin="round"/>
<path d="M23 33.5L25.8313 25.0156C25.8806 24.8656 25.976 24.735 26.104 24.6424C26.2319 24.5498 26.3858 24.5 26.5438 24.5H41.4594C41.578 24.5 41.6949 24.5281 41.8005 24.582C41.9061 24.636 41.9975 24.7142 42.067 24.8102C42.1365 24.9063 42.1823 25.0175 42.2005 25.1347C42.2188 25.2519 42.2089 25.3717 42.1719 25.4844L39.5 33.5H23Z" stroke="#B0B0B0" stroke-width="1.5" stroke-linecap="round" stroke-linejoin="round"/>
</svg>
