<svg width="64" height="52" viewBox="0 0 64 52" fill="none" xmlns="http://www.w3.org/2000/svg">
<rect width="64" height="52" rx="26" fill="url(#paint0_linear_1_18)"/>
<path d="M34.2495 33.4993V28.9992C34.2495 28.8003 34.1704 28.6095 34.0298 28.4689C33.8891 28.3282 33.6984 28.2492 33.4995 28.2492H30.4995C30.3005 28.2492 30.1098 28.3282 29.9691 28.4689C29.8285 28.6095 29.7495 28.8003 29.7495 28.9992V33.4993C29.7495 33.6982 29.6704 33.889 29.5298 34.0296C29.3892 34.1702 29.1984 34.2493 28.9995 34.2493L24.5001 34.2499C24.4016 34.2499 24.3041 34.2305 24.2131 34.1928C24.122 34.1551 24.0394 34.0999 23.9697 34.0303C23.9 33.9606 23.8448 33.8779 23.8071 33.7869C23.7694 33.6959 23.75 33.5984 23.75 33.4999V24.8317C23.75 24.7272 23.7718 24.6239 23.8141 24.5283C23.8564 24.4328 23.9181 24.3471 23.9954 24.2768L31.4949 17.4579C31.633 17.3324 31.8129 17.2629 31.9995 17.2628C32.186 17.2628 32.3659 17.3324 32.504 17.4579L40.0045 24.2768C40.0818 24.3471 40.1436 24.4328 40.1859 24.5284C40.2282 24.6239 40.25 24.7273 40.25 24.8318V33.4999C40.25 33.5984 40.2306 33.6959 40.1929 33.7869C40.1552 33.8779 40.1 33.9606 40.0303 34.0303C39.9606 34.0999 39.878 34.1552 39.7869 34.1928C39.6959 34.2305 39.5984 34.2499 39.4999 34.2499L34.9994 34.2493C34.8005 34.2493 34.6097 34.1703 34.4691 34.0296C34.3285 33.889 34.2494 33.6982 34.2495 33.4993Z" fill="white" stroke="white" stroke-width="1.5" stroke-linecap="round" stroke-linejoin="round"/>
<defs>
<linearGradient id="paint0_linear_1_18" x1="-20.8823" y1="11.1605" x2="62.3255" y2="61.153" gradientUnits="userSpaceOnUse">
<stop stop-color="#1104F3"/>
<stop offset="1" stop-color="#0EDEF9"/>
</linearGradient>
</defs>
</svg>
