<svg width="64" height="52" viewBox="0 0 64 52" fill="none" xmlns="http://www.w3.org/2000/svg">
<path d="M32 13C29.4288 13 26.9154 13.7624 24.7776 15.1909C22.6398 16.6194 20.9735 18.6497 19.9896 21.0251C19.0056 23.4006 18.7482 26.0144 19.2498 28.5362C19.7514 31.0579 20.9895 33.3743 22.8076 35.1924C24.6257 37.0105 26.9421 38.2486 29.4638 38.7502C31.9856 39.2518 34.5995 38.9944 36.9749 38.0104C39.3503 37.0265 41.3807 35.3603 42.8091 33.2224C44.2376 31.0846 45 28.5712 45 26C44.9934 22.5542 43.6216 19.2515 41.1851 16.8149C38.7486 14.3784 35.4458 13.0066 32 13ZM37 27H33V31C33 31.2652 32.8946 31.5196 32.7071 31.7071C32.5196 31.8946 32.2652 32 32 32C31.7348 32 31.4804 31.8946 31.2929 31.7071C31.1054 31.5196 31 31.2652 31 31V27H27C26.7348 27 26.4804 26.8946 26.2929 26.7071C26.1054 26.5196 26 26.2652 26 26C26 25.7348 26.1054 25.4804 26.2929 25.2929C26.4804 25.1054 26.7348 25 27 25H31V21C31 20.7348 31.1054 20.4804 31.2929 20.2929C31.4804 20.1054 31.7348 20 32 20C32.2652 20 32.5196 20.1054 32.7071 20.2929C32.8946 20.4804 33 20.7348 33 21V25H37C37.2652 25 37.5196 25.1054 37.7071 25.2929C37.8946 25.4804 38 25.7348 38 26C38 26.2652 37.8946 26.5196 37.7071 26.7071C37.5196 26.8946 37.2652 27 37 27Z" fill="#2078FB"/>
</svg>
